D:\school\WTK\thesis\model\3dpredictsim\Results\debug_batch\Pog_s1_tmt_bCst_d05_k800_ig24_pas_GRF.mot
nRows=22
nColumns=19

name D:\school\WTK\thesis\model\3dpredictsim\Results\debug_batch\Pog_s1_tmt_bCst_d05_k800_ig24_pas_GRF.mot
datacolumns 19
datarows 22
range 0.0000000000 0.2332631514
endheader
time 	ground_force_vx	ground_force_vy	ground_force_vz	ground_force_px	ground_force_py	ground_force_pz	1_ground_force_vx	1_ground_force_vy	1_ground_force_vz	1_ground_force_px	1_ground_force_py	1_ground_force_pz	ground_torque_x	ground_torque_y	ground_torque_z	1_ground_torque_x	1_ground_torque_y	1_ground_torque_z
        0.0000000000	      -76.9482284728	       63.1120637340	       29.4553204432	        0.1690401275	        0.0000000000	        0.0378595874	      100.2260557580	      495.4572666224	       -4.0133523925	       -0.3176205823	        0.0000000000	       -0.0331238888	        0.0000000000	        0.0000000000	        0.0000000000	        0.0000000000	        0.0000000000	        0.0000000000	
        0.0111077691	     -123.0326505780	      140.5421934872	       74.3141147410	        0.1766210906	        0.0000000000	        0.0354454485	       81.4297604148	      414.2885916099	       -9.0862816094	       -0.3138493599	        0.0000000000	       -0.0319735527	        0.0000000000	        0.0000000000	        0.0000000000	        0.0000000000	        0.0000000000	        0.0000000000	
        0.0222155382	      -49.9088468896	      284.5710059741	       33.1014725059	        0.1826282989	        0.0000000000	        0.0329712522	       59.9196261657	      321.2925698599	       -9.4960606577	       -0.3078978201	        0.0000000000	       -0.0296565844	        0.0000000000	        0.0000000000	        0.0000000000	        0.0000000000	        0.0000000000	        0.0000000000	
        0.0333233073	      -46.0449619788	      452.6012993311	        3.8837518727	        0.1868929590	        0.0000000000	        0.0331230150	       30.7873536653	      215.9670748236	       -5.7901864126	       -0.2966614415	        0.0000000000	       -0.0243659753	        0.0000000000	        0.0000000000	        0.0000000000	        0.0000000000	        0.0000000000	        0.0000000000	
        0.0444310765	      -79.6676364384	      658.2566974985	       -7.2412654120	        0.1954982097	        0.0000000000	        0.0356559121	       10.0340509580	      141.1878053957	       -8.4814369132	       -0.2814627558	        0.0000000000	       -0.0163462087	        0.0000000000	        0.0000000000	        0.0000000000	        0.0000000000	        0.0000000000	        0.0000000000	
        0.0555388456	     -105.6688546075	      800.4746888611	      -12.7113521519	        0.2017267704	        0.0000000000	        0.0374491554	        1.4080387110	      112.2424577538	       -9.8922838587	       -0.2819437741	        0.0000000000	       -0.0167846938	        0.0000000000	        0.0000000000	        0.0000000000	        0.0000000000	        0.0000000000	        0.0000000000	
        0.0666466147	     -114.3320184955	      857.5690343356	      -13.8651792524	        0.2058660431	        0.0000000000	        0.0385108413	       -1.8596593757	       74.0099345450	       -9.1537636254	       -0.2814274356	        0.0000000000	       -0.0168453817	        0.0000000000	        0.0000000000	        0.0000000000	        0.0000000000	        0.0000000000	        0.0000000000	
        0.0777543838	     -110.9915363063	      858.5387914033	      -13.7239537374	        0.2090836378	        0.0000000000	        0.0391218030	       -8.0408676031	       30.6697884983	       -5.3206951432	       -0.2817759946	        0.0000000000	       -0.0167936050	        0.0000000000	        0.0000000000	        0.0000000000	        0.0000000000	        0.0000000000	        0.0000000000	
        0.0888621529	     -102.1137007105	      838.3870382310	      -13.9618289444	        0.2123304417	        0.0000000000	        0.0394195621	        0.1065286525	       -0.1063898141	        0.0015239668	        0.0000000000	        0.0000000000	        0.0000000000	        0.0000000000	        0.0000000000	        0.0000000000	        0.0000000000	        0.0000000000	        0.0000000000	
        0.0999699220	      -89.7162832985	      805.3881005559	      -14.6016156626	        0.2157037479	        0.0000000000	        0.0395325605	        0.0001354202	       -0.0001112947	       -0.0000083198	        0.0000000000	        0.0000000000	        0.0000000000	        0.0000000000	        0.0000000000	        0.0000000000	        0.0000000000	        0.0000000000	        0.0000000000	
        0.1110776912	      -78.1671357676	      768.1639751831	      -15.0332530444	        0.2195742251	        0.0000000000	        0.0395493578	        0.0000542183	       -0.0000388099	       -0.0000042622	        0.0000000000	        0.0000000000	        0.0000000000	        0.0000000000	        0.0000000000	        0.0000000000	        0.0000000000	        0.0000000000	        0.0000000000	
        0.1221854603	      -68.1665595259	      734.0466776049	      -15.1357480048	        0.2239586598	        0.0000000000	        0.0394517314	        0.0004931740	       -0.0003164690	       -0.0000429133	        0.0000000000	        0.0000000000	        0.0000000000	        0.0000000000	        0.0000000000	        0.0000000000	        0.0000000000	        0.0000000000	        0.0000000000	
        0.1332932294	      -58.3544566019	      701.2080399473	      -15.6289941740	        0.2283085376	        0.0000000000	        0.0393531485	        0.0059684723	       -0.0035112441	       -0.0005475178	        0.0000000000	        0.0000000000	        0.0000000000	        0.0000000000	        0.0000000000	        0.0000000000	        0.0000000000	        0.0000000000	        0.0000000000	
        0.1444009985	      -48.7229356979	      670.5698837217	      -16.1402331445	        0.2325543817	        0.0000000000	        0.0393135468	       -0.0268393858	        0.0146973904	        0.0025515606	        0.0000000000	        0.0000000000	        0.0000000000	        0.0000000000	        0.0000000000	        0.0000000000	        0.0000000000	        0.0000000000	        0.0000000000	
        0.1555087676	      -40.4325734747	      644.2852630239	      -16.7456870223	        0.2368938827	        0.0000000000	        0.0393226605	       -0.0184205005	        0.0094924154	        0.0018040625	        0.0000000000	        0.0000000000	        0.0000000000	        0.0000000000	        0.0000000000	        0.0000000000	        0.0000000000	        0.0000000000	        0.0000000000	
        0.1666165367	      -33.5753478161	      622.7256012434	      -17.4620632861	        0.2412840029	        0.0000000000	        0.0393576342	       -0.0123569279	        0.0060450815	        0.0012426645	        0.0000000000	        0.0000000000	        0.0000000000	        0.0000000000	        0.0000000000	        0.0000000000	        0.0000000000	        0.0000000000	        0.0000000000	
        0.1777243059	      -27.6951762444	      605.7670368835	      -18.0328365721	        0.2458367837	        0.0000000000	        0.0394059140	       -0.0105692733	        0.0049452369	        0.0010833636	        0.0000000000	        0.0000000000	        0.0000000000	        0.0000000000	        0.0000000000	        0.0000000000	        0.0000000000	        0.0000000000	        0.0000000000	
        0.1888320750	      -23.0166629887	      593.5287034527	      -18.3320115712	        0.2507314999	        0.0000000000	        0.0394419972	       -0.0120895450	        0.0054398170	        0.0012578757	        0.0000000000	        0.0000000000	        0.0000000000	        0.0000000000	        0.0000000000	        0.0000000000	        0.0000000000	        0.0000000000	        0.0000000000	
        0.1999398441	      -19.4570326074	      585.6765786172	      -18.4338451902	        0.2560327512	        0.0000000000	        0.0394389692	       -0.0179759938	        0.0078152329	        0.0018862409	        0.0000000000	        0.0000000000	        0.0000000000	        0.0000000000	        0.0000000000	        0.0000000000	        0.0000000000	        0.0000000000	        0.0000000000	
        0.2110476132	      -17.3486440754	      581.5167091419	      -18.3568842327	        0.2616638967	        0.0000000000	        0.0393835606	       -0.0325983792	        0.0137512930	        0.0034265907	        0.0000000000	        0.0000000000	        0.0000000000	        0.0000000000	        0.0000000000	        0.0000000000	        0.0000000000	        0.0000000000	        0.0000000000	
        0.2221553823	      -16.1390515054	      580.0497109882	      -18.0814083918	        0.2674346419	        0.0000000000	        0.0392810290	       -0.0665421243	        0.0273442510	        0.0069653395	        0.0000000000	        0.0000000000	        0.0000000000	        0.0000000000	        0.0000000000	        0.0000000000	        0.0000000000	        0.0000000000	        0.0000000000	
        0.2332631514	      -14.8830834866	      580.0472505488	      -17.8252670081	        0.2733237271	        0.0000000000	        0.0391360124	       -0.1409788813	        0.0566392684	        0.0146155303	        0.0000000000	        0.0000000000	        0.0000000000	        0.0000000000	        0.0000000000	        0.0000000000	        0.0000000000	        0.0000000000	        0.0000000000	
